<svg width="130" height="21" viewBox="0 0 130 21" fill="none" xmlns="http://www.w3.org/2000/svg">
  <path d="M17.5665 5.12012H19.8198L22.8395 13.3822L25.8746 5.12012H28.1125V20.8318H25.6446V11.6347L23.4987 17.4749H22.1804L20.0344 11.6347V20.8318H17.5665V5.12012Z" fill="#181818"/>
  <path d="M12.1095 20.8318V5.12012H14.5774V20.8318H12.1095Z" fill="#181818"/>
  <path d="M31.1014 20.8318V5.12012H37.708V7.34275H33.5693V11.8033H37.1255V14.026H33.5693V18.5938H37.6927V20.8165H31.1014V20.8318Z" fill="#181818"/>
  <path d="M45.5563 20.8318V5.12012H48.0242V18.6092H52.1475V20.8318H45.5563Z" fill="#181818"/>
  <path d="M54.6766 20.8318V5.12012H61.2832V7.34275H57.1598V11.8033H60.7007V14.026H57.1445V18.5938H61.2679V20.8165H54.6766V20.8318Z" fill="#181818"/>
  <path d="M70.557 19.6815C69.8979 20.4326 69.0088 20.9998 67.5067 20.9998C64.7477 20.9998 62.7856 18.7925 62.7856 12.976C62.7856 7.15952 64.7477 4.95215 67.5067 4.95215C69.0088 4.95215 69.8979 5.5194 70.557 6.27046V0H73.025V20.8318H70.557V19.6815ZM67.9965 7.17478C66.4791 7.17478 65.3599 8.69477 65.3599 12.976C65.3599 17.2572 66.4791 18.7772 67.9965 18.7772C69.514 18.7772 70.6332 17.2572 70.6332 12.976C70.6332 8.69477 69.514 7.17478 67.9965 7.17478Z" fill="#181818"/>
  <path d="M81.9566 4.95215C84.8231 4.95215 87.1527 7.15952 87.1527 12.976C87.1527 18.7925 84.8231 20.9998 81.9566 20.9998C79.0901 20.9998 76.7605 18.7925 76.7605 12.976C76.7605 7.15952 79.0901 4.95215 81.9566 4.95215ZM81.9566 7.17478C80.4392 7.17478 79.3353 8.69477 79.3353 12.976C79.3353 17.2572 80.4392 18.7772 81.9566 18.7772C83.4741 18.7772 84.5933 17.2572 84.5933 12.976C84.5933 8.69477 83.4894 7.17478 81.9566 7.17478Z" fill="#181818"/>
  <path d="M93.9776 5.12012C95.6794 5.12012 97.0898 5.6567 97.6568 6.48523V5.12012H100.125V20.8318H97.6568V19.3889C97.0898 20.2174 95.6794 20.7693 93.9776 20.7693C91.4484 20.7693 89.7314 19.0959 89.7314 15.7946V10.1573C89.7314 6.85597 91.4637 5.12012 93.9776 5.12012ZM94.7588 7.34275C93.4406 7.34275 92.199 8.23429 92.199 10.1573V15.7946C92.199 17.7177 93.4253 18.5462 94.7588 18.5462C96.0924 18.5462 97.3493 17.7177 97.3493 15.7946V10.1573C97.3493 8.23429 96.1077 7.34275 94.7588 7.34275Z" fill="#181818"/>
  <path d="M104.019 20.8318V5.12012H106.472V7.97196C107.101 6.36154 108.434 4.95215 110.517 4.95215H111.145V7.64953H110.121C108.145 7.64953 106.472 8.84833 106.472 12.3495V20.8318H104.019Z" fill="#181818"/>
  <path d="M120.039 19.4962C119.166 20.3094 117.786 20.9998 115.808 20.9998C112.865 20.9998 111.163 19.2946 111.163 15.8706V10.0501C111.163 6.76407 113.049 4.95215 115.839 4.95215C118.629 4.95215 120.515 6.76407 120.515 10.0501V14.5107H113.631V15.8706C113.631 17.7631 114.49 18.7772 115.992 18.7772C117.004 18.7772 117.602 18.4854 118.338 17.9028L120.039 19.4962ZM118.047 12.2882V10.0501C118.047 8.12715 117.158 7.17478 115.839 7.17478C114.52 7.17478 113.631 8.12715 113.631 10.0501V12.2882H118.047Z" fill="#181818"/>
  <path d="M3.78998 14.026L0 20.8318H2.77419L5.31739 16.2487L7.87585 20.8318H10.65L6.84479 14.026L10.3704 7.60479H10.3857L10.65 5.12012H7.87585L5.31739 9.80367L2.77419 5.12012H0L3.78998 14.026Z" fill="#181818"/>
  <path d="M126.84 16.2028C126.84 17.2114 127.355 17.5642 128.277 17.5642H129.994V20.0555H127.929C125.413 20.0555 124.372 18.7569 124.372 16.2028V2.03613H126.84V16.2028Z" fill="#181818"/>
</svg>
