<svg viewBox="0 0 1700 308" xmlns="http://www.w3.org/2000/svg" fill="#000000">
  <path d="M382.74 231.76V223.37C397.76 221.6 399.53 220.06 399.53 208.13V100.34C399.53 88.4098 397.76 86.8598 382.74 85.0998V76.7098H458.07C492.31 76.7098 511.97 89.7398 511.97 115.36C511.97 137.67 491.65 148.94 470.44 151.15C499.82 152.26 521.25 165.95 521.25 189.8C521.25 217.41 500.49 231.77 461.17 231.77H382.75L382.74 231.76ZM437.08 86.1898V146.49H445.47C465.79 146.49 475.96 136.11 475.96 115.79C475.96 95.4698 464.47 86.1898 445.25 86.1898H437.08ZM437.08 157.32V207.25C437.08 219.18 441.72 222.27 454.31 222.27H456.3C473.97 222.27 484.36 211.22 484.36 189.36C484.36 169.48 473.53 157.33 449.68 157.33H437.09L437.08 157.32Z"/>
  <path d="M628.37 207.46C628.37 213.87 629.48 218.51 635 218.51C638.31 218.51 641.19 217.63 643.17 216.74L644.5 222.04C637.87 229.55 629.03 233.97 617.55 233.97C605.18 233.97 596.79 226.9 593.92 214.97C587.07 224.25 576.02 233.52 560.12 233.52C541.79 233.52 529.42 222.69 529.42 204.36C529.42 186.03 542.9 177.41 559.02 171.45L593.26 159.3V138.76C593.26 127.27 589.73 119.32 579.56 119.32C570.06 119.32 566.08 126.83 566.08 137.43C566.08 142.07 566.74 146.71 568.07 151.79L546.86 154.66C540.67 152.67 536.48 147.59 536.48 140.08C536.48 120.87 556.36 111.58 581.99 111.58C611.37 111.58 628.38 121.52 628.38 148.91V207.45L628.37 207.46ZM593.24 209V167.91L577.56 174.1C568.95 177.64 563.42 182.05 563.42 194.65C563.42 206.14 568.28 214.31 579.76 214.31C584.84 214.31 588.38 212.32 593.24 209.01V209Z"/>
  <path d="M763.01 78.2198C763.01 75.0498 764.21 71.4798 750.2 71.5898V63.8298L792.61 51.8398H798.35L798.79 214.75C798.79 222.04 802.32 223.14 812.04 223.81V231.76H750.19V223.81C759.91 223.15 763.44 222.04 763.44 214.75L763 78.2198H763.01ZM835.02 137.88C839.88 133.46 841.87 130.81 841.87 127.94C841.87 123.74 838.34 122.86 828.17 121.75V113.8H876.54V121.75C868.81 123.08 863.95 124.4 858.42 129.92L831.03 155.54L881.17 226.22V231.75H843.84L800.77 169.02L835.01 137.87L835.02 137.88Z"/>
  <path d="M986.29 175.2C986.29 137.87 1011.25 111.59 1045.71 111.59C1080.17 111.59 1104.91 134.79 1104.91 170.35C1104.91 207.68 1079.73 233.96 1045.27 233.96C1010.81 233.96 986.29 210.76 986.29 175.2ZM1067.14 178.96C1067.14 144.5 1060.73 120.2 1044.61 120.2C1029.81 120.2 1023.84 138.1 1023.84 166.59C1023.84 201.05 1030.25 225.35 1046.38 225.35C1061.18 225.35 1067.14 207.45 1067.14 178.96Z"/>
  <path d="M1228.55 207.46C1228.55 214.97 1229.17 222.65 1236.91 223.09L1242.25 223.47V231.76H1199.16L1193.23 231.01L1193.21 212.77C1184.6 222.93 1172.89 233.97 1154.33 233.97C1134.67 233.97 1121.64 222.71 1121.64 197.52V141.63C1121.64 134.79 1120.1 130.8 1112.14 129.04L1108.83 128.38V120.87L1152.35 111.81H1158.31L1157.2 138.98V193.54C1157.2 205.91 1161.84 213.2 1173.33 213.2C1181.06 213.2 1186.58 210.33 1193.21 206.79V141.63C1193.21 134.79 1191.67 130.8 1183.72 129.04L1180.41 128.38V120.87L1223.7 111.81H1229.89L1228.57 138.54V207.46H1228.55Z"/>
  <path d="M1337.86 150.24C1337.86 138.75 1333.67 132.79 1321.95 132.79C1313.77 132.79 1306.26 135.88 1300.08 139.86V214.74C1300.08 222.03 1303.18 223.13 1312.67 223.8V231.75H1251.48V223.8C1260.98 223.14 1264.51 222.03 1264.51 214.74V136.76L1251.7 129.03V123.95L1294.33 111.58H1300.96L1300.08 133.45C1308.92 122.62 1321.51 111.58 1340.95 111.58C1361.93 111.58 1373.42 123.51 1373.42 147.58V214.73C1373.42 222.02 1376.96 223.12 1386.45 223.79V231.74H1325.26V223.79C1334.76 223.13 1337.85 222.02 1337.85 214.73V150.23L1337.86 150.24Z"/>
  <path d="M1436.09 113.8H1463.48V124.85H1436.09V197.97C1436.09 210.12 1440.73 215.2 1450.23 215.2C1455.97 215.2 1461.05 213.21 1466.36 209.24L1469.45 213.66C1461.72 226.03 1450.01 233.98 1433.22 233.98C1414.22 233.98 1400.53 224.26 1400.53 198.86V124.86H1387.28V118.67C1403.62 111.83 1418.21 99.2299 1428.58 84.4299H1436.09V113.81V113.8Z"/>
  <path d="M1521.36 212.1C1521.36 221.38 1526.21 222.48 1539.47 223.81V231.76H1472.76V223.81C1482.26 223.15 1485.79 222.04 1485.79 214.75V136.77L1472.98 129.04V123.96L1515.61 111.59H1522.24L1521.36 144.94C1531.08 119.98 1538.15 111.59 1551.62 111.59C1556.48 111.59 1560.01 113.13 1562 115.35V142.3H1557.36C1543.45 142.3 1531.96 142.96 1521.36 152.46V212.1Z"/>
  <path d="M1646.55 115.61V125.38L1647.51 125.49C1655.97 126.46 1660.25 129.59 1660.25 134.8C1660.25 136.29 1659.76 137.84 1659.2 139.33L1642.68 190.11L1621.7 135.12C1621.28 133.87 1621.09 132.89 1621.09 131.93C1621.09 128.62 1623.97 126.52 1629.66 125.71L1630.59 125.57V115.61H1570.11V126.25L1571.05 126.37C1580.22 127.58 1582.35 132.74 1587.01 144.06C1587.92 146.28 1588.93 148.71 1590.09 151.37L1625.87 232.15L1615.94 257.34C1612.07 264 1603.15 264.51 1597.35 263.57C1591.91 262.69 1588.04 260.48 1584.05 256.74L1578.13 273.9C1579.47 283.53 1587.32 289.19 1599.75 289.19C1612.18 289.19 1623.22 283.6 1628.27 271.07L1680.37 144.92C1685.7 131.92 1689.83 127.61 1698.81 125.69L1699.67 125.51V115.6H1646.56L1646.55 115.61Z"/>
  <path d="M696.14 123.44C695.13 123.76 694.15 124.16 693.23 124.63C683.93 129.36 679.2 138.51 676.84 148.14C671.3 170.66 678.42 201.88 703.8 208.53C706.95 209.35 710.2 209.78 713.45 209.75C728.82 209.58 736.17 201.07 743.49 194.29L747.91 196.72C742.28 219.7 725.78 234.56 699.86 234.56C679.04 234.56 660.57 222.4 652.42 203.23C641.81 178.27 646.13 146.31 665.29 126.59C680.86 110.57 706.87 107.52 727.13 115.38C728.49 115.91 732.05 117.59 734.85 119.57C737.37 121.35 745.02 129.63 744.58 138.62C744.17 147.12 732.21 148.1 729.94 148.18C728.91 148.21 719.75 148.25 719.72 146.67C719.59 139.65 719.82 138.06 717.07 131.4C713.58 122.95 703.98 120.93 696.12 123.44H696.14Z"/>
  <path d="M927.5 123.33C926.49 123.65 925.51 124.05 924.59 124.52C915.29 129.25 910.57 138.4 908.2 148.03C902.66 170.55 909.78 201.77 935.16 208.42C938.31 209.24 941.56 209.67 944.81 209.64C960.18 209.47 967.52 200.96 974.85 194.18L979.27 196.61C973.64 219.59 957.14 234.45 931.22 234.45C910.4 234.45 891.94 222.29 883.78 203.12C873.16 178.16 877.49 146.2 896.65 126.48C912.22 110.46 938.23 107.41 958.49 115.27C959.85 115.8 963.41 117.48 966.22 119.46C968.74 121.24 976.39 129.52 975.95 138.51C975.54 147.01 963.58 147.99 961.31 148.07C960.28 148.1 951.12 148.14 951.09 146.56C950.96 139.54 951.19 137.95 948.44 131.3C944.95 122.85 935.35 120.83 927.49 123.34L927.5 123.33Z"/>
  <path d="M215.76 202.77C210.76 196.82 209.36 189.3 213.11 183.58C215.82 179.24 217.35 174.27 217.56 169.16C217.67 160.24 207.23 147 192.67 144.26C183.82 142.61 174.05 142.57 166.48 141.55C145.4 138.76 139.36 130.13 139.36 121.86C139.36 111.79 149.27 109.03 153.44 108.49C170.68 106.35 191.78 118.2 207.01 140.21C197.85 111.9 178.57 98.3999 156.15 91.9899C179.23 93.7799 193.89 104.3 208.98 123.69C197.73 88.26 166.39 78.8799 148.96 77.8799C128.78 76.6999 112.96 81.7199 100.42 97.1399C99.78 97.9099 98.78 99.2599 98.1 100.18C97.58 100.88 97.12 101.62 96.72 102.38C96.22 103.31 95.77 104.28 95.38 105.27C94.1 108.95 93.12 112.73 92.43 116.58C91.41 121.14 89.91 125.58 87.95 129.82C89.16 131.69 90.97 133.08 93.09 133.78C93.09 133.86 91.91 135.83 93.44 140.21C94.47 143.17 96.76 145.19 97.06 148.84C97.33 152.01 94.78 156.92 94.78 156.92C94.78 156.92 101.29 152.69 102.42 148.69C103.37 145.34 101.78 143.71 102.22 140.27C102.41 138.31 103.42 136.53 105.01 135.36C107.56 133.74 110.96 134.48 112.59 137.03C113.38 138.28 113.79 139.73 113.77 141.21C113.77 141.21 113.97 143.42 114.76 146.04C116.35 151.28 118.38 155.32 122.67 157.27C124.99 158.33 128.63 158.8 131.74 163.18C134.43 166.97 135.45 172.29 134.95 176.02C134.18 181.73 130.35 186.39 126.72 186.39C122.74 186.39 118.94 183.5 117.95 180.65C115.76 174.41 117.57 170.51 114.78 168.45C112.02 166.41 106.74 168.1 105.14 171.68C103.21 176.04 104.79 181.2 105.43 183.49C107.47 190.78 111.37 198.74 117.54 205.49C120.22 208.41 123.72 211.87 127.89 214.97C132.47 218.37 144.45 226.47 159.41 228.24C177.54 230.39 193.09 222.55 208.42 207.24L215.76 202.78V202.77Z"/>
  <path d="M153.22 307.68C68.6 307.68 0 238.81 0 153.84C0 68.87 68.6 0 153.22 0C237.84 0 306.44 68.88 306.44 153.84C306.35 238.77 237.8 307.59 153.22 307.68ZM153.22 28.66C84.37 28.66 28.55 84.71 28.55 153.84C28.55 222.97 84.37 279.02 153.22 279.02C222.07 279.02 277.89 222.97 277.89 153.84C277.82 84.73 222.04 28.74 153.22 28.66Z"/>
</svg>
