<svg xmlns="http://www.w3.org/2000/svg" fill="none" viewBox="0 0 300 49" height="49" width="300">
<g clip-path="url(#clip0_1482_1922)">
<path fill="#19975D" d="M31.8226 22.6714V22.2994C35.9022 21.0005 37.9391 16.9858 37.9391 12.9061C37.9391 2.16086 28.7289 0 19.7076 0H0V46.5885H23.0492C31.2026 46.5885 40.1059 43.3118 40.1059 33.7355C40.1059 28.1739 36.8941 24.4662 31.8285 22.6773L31.8226 22.6714ZM14.8899 10.4383H17.8242C19.6013 10.4383 23.3031 10.4383 23.3031 14.4589C23.3031 18.7275 19.0581 18.7275 17.2456 18.7275H14.8958V10.4383H14.8899ZM17.6116 36.2742H14.8899V26.94H17.6175C20.0854 26.94 25.216 26.94 25.216 31.5746C25.216 36.2092 20.2684 36.2742 17.6116 36.2742Z"></path>
<path fill="#19975D" d="M83.4496 0C69.2977 0 57.6846 9.51725 57.6846 24.1592C57.6846 38.8011 69.2387 48.0704 83.4496 48.0704C97.6606 48.0704 109.215 39.1081 109.215 24.1592C109.215 9.21024 97.6015 0 83.4496 0ZM83.4496 34.1723C77.8467 34.1723 73.9324 30.1576 73.9324 24.4071C73.9324 18.6566 77.9353 14.5179 83.4496 14.5179C88.964 14.5179 92.9669 18.6743 92.9669 24.4071C92.9669 30.1399 89.0525 34.1723 83.4496 34.1723Z"></path>
<path fill="#19975D" d="M214.139 28.7171H227.175V17.7415H214.139V12.7231H228.415V0H197.089V46.5885H228.905V33.8594H214.139V28.7171Z"></path>
<path fill="#19975D" d="M282.887 0V23.675L268.617 0H252.37V46.5825H268.552L268.558 23.0079L282.887 46.5825H299.076V0H282.887Z"></path>
<path fill="#19975D" d="M149.433 0.00590399H132.194V46.5885H153.637C167.293 46.5885 177.052 37.8151 177.052 23.9761C177.052 6.86045 165.067 0 149.433 0V0.00590399ZM150.177 33.4344H148.317V13.7799H150.177C157.215 13.7799 160.934 17.2869 160.934 23.9171C160.934 29.8742 156.914 33.4344 150.177 33.4344Z"></path>
</g>
<defs>
<clipPath id="clip0_1482_1922">
<rect fill="white" height="48.0704" width="300"></rect>
</clipPath>
</defs>
</svg>
