<?xml version="1.0" encoding="utf-8"?>
<!-- Generator: Adobe Illustrator 25.4.1, SVG Export Plug-In . SVG Version: 6.00 Build 0)  -->
<svg version="1.1" id="Layer_1" xmlns="http://www.w3.org/2000/svg" xmlns:xlink="http://www.w3.org/1999/xlink" x="0px" y="0px"
	 width="170px" height="42px" viewBox="0 0 170 42" style="enable-background:new 0 0 170 42;" xml:space="preserve">
<style type="text/css">
	.st0{fill-rule:evenodd;clip-rule:evenodd;}
</style>
<path class="st0" d="M30.3,22.8C30.3,22.8,30.3,22.9,30.3,22.8c0.1,0.1,0.1,0.4,0.1,0.4s-0.1,0-0.2,0c0,0,0,0-0.1-0.1
	c0-0.1-0.1-0.1-0.1-0.2c0-0.1,0-0.1,0.1-0.1C30.2,22.8,30.2,22.8,30.3,22.8z M30.4,18.5C30.5,18.5,30.5,18.5,30.4,18.5
	c0.2,0.1,0.2,0,0.2-0.1s0-0.4-0.1-0.5c-0.1-0.2-0.1-0.5-0.4-0.7c0-0.1-0.1-0.1-0.2-0.1c-0.1,0-0.2,0-0.2,0.1c0,0.1-0.1,0.2,0,0.4
	C29.9,18,30.2,18.3,30.4,18.5z M30.5,19.1c0-0.1-0.1-0.1-0.1-0.1c0-0.1-0.1-0.1-0.1-0.2c0,0,0-0.1-0.1-0.1c-0.1,0-0.1,0.1-0.1,0.1
	C30,19,30.3,19.1,30.5,19.1z M30.5,21C30.5,21,30.5,21.1,30.5,21c0.1,0,0.1,0,0.1,0v-0.1c-0.1-0.2-0.2-0.5-0.4-0.7
	c-0.1-0.2-0.4-0.4-0.6-0.4h-0.1c0,0,0,0.1-0.1,0.1c0,0,0,0,0.1,0c0.1,0,0.1,0.1,0.1,0.1l0.1,0.1c0,0.1,0,0.1,0,0.1
	c-0.1,0-0.2,0-0.5,0c-0.2,0-0.4-0.1-0.6-0.1h-0.1v0.1c0.1,0.1,0.2,0.4,0.5,0.4c0.1,0,0.1,0,0.2,0c0.1,0,0.1,0,0.2-0.1
	c0.1-0.1,0.4-0.1,0.5,0C30.2,20.6,30.4,20.7,30.5,21L30.5,21z M31.3,17.6c0.5,0,0.9-0.5,0.7-0.9c0-0.1-0.1-0.1-0.1-0.1
	c-0.1-0.2-0.5-0.2-0.7-0.2c-0.1,0-0.2,0.1-0.4,0.1l0,0c-0.1,0.2-0.1,0.5-0.1,0.7C30.8,17.4,30.9,17.6,31.3,17.6z M31.5,18.4
	L31.5,18.4L31.5,18.4c0-0.2,0-0.4,0-0.5v-0.1h-0.1v0.1C31.3,18,31.3,18.3,31.5,18.4C31.4,18.4,31.5,18.4,31.5,18.4z M31.1,16.1
	c0.1,0,0.1,0,0.2-0.1c0-0.1,0-0.2,0-0.2v-0.1c0-0.1,0-0.2,0.1-0.2c0.1,0,0.2,0,0.2,0c0.1,0.1,0.2,0.2,0.2,0.4
	c0.1,0.1,0.4,0.2,0.5,0.1c0,0,0.1,0,0.1-0.1c0.2-0.4,0.1-0.6-0.2-0.8c-0.1,0-0.2-0.1-0.2-0.1c-0.2,0-0.5,0.1-0.7,0.2
	c-0.2,0.1-0.4,0.2-0.4,0.5c0,0.1,0,0.1,0,0.2C31,16,31,16,31.1,16.1z M30.9,20c0.1,0.6,0.7,0.7,1.1,0.5l0.1-0.1
	c0.1-0.2,0.2-0.5,0.2-0.7s0-0.5-0.2-0.7L32,18.9c-0.1-0.1-0.4-0.1-0.6-0.1c-0.1,0-0.1,0.1-0.2,0.1C30.9,19.3,30.8,19.7,30.9,20z
	 M34.3,21.2c-0.6-0.2-1.1,0-1.2,0.6c-0.1,0.2,0,0.5,0.1,0.7c0.1,0.2,0.4,0.4,0.6,0.4c0.1,0,0.4,0,0.5,0c0,0,0.1,0,0.1-0.1
	c0.2-0.2,0.4-0.4,0.4-0.6C34.8,21.7,34.7,21.5,34.3,21.2z M32.8,19.2C32.8,19.1,32.8,19.1,32.8,19.2c-0.2,0-0.2,0-0.4,0.1
	c0,0.1,0,0.1,0.1,0.1S32.8,19.3,32.8,19.2z M32.5,23v0.1c0,0,0,0,0.1,0h0.1c0-0.1,0-0.1,0-0.1c0.1-0.1,0.1-0.1,0.1-0.2
	c0-0.1-0.1-0.1-0.1-0.1C32.6,22.6,32.5,22.8,32.5,23z M33.7,20.4c-0.1,0-0.2,0-0.2-0.1c-0.1-0.1-0.1-0.1,0-0.2s0.2-0.2,0.4-0.2v-0.1
	l-0.1-0.1c-0.1,0-0.2,0-0.4,0.1l-0.1,0.1c-0.1,0.2-0.4,0.5-0.4,0.8c0,0.1-0.1,0.2-0.1,0.4l0,0v0.1h0.1C33,21.1,33,21,33,21
	c0.1-0.1,0.2-0.2,0.5-0.2c0.1,0,0.4,0,0.5,0c0.2,0,0.4-0.1,0.6-0.1c0.2-0.1,0.2-0.2,0.4-0.5c0-0.1,0-0.1-0.1-0.1
	c-0.2,0.1-0.4,0.1-0.6,0.2C34,20.3,33.8,20.3,33.7,20.4z M34,17.8c0-0.1,0-0.1,0.1-0.2c0-0.2,0-0.4-0.2-0.5h-0.1
	c-0.1,0-0.1,0.1-0.1,0.2C33.6,17.6,33.7,17.7,34,17.8C33.8,17.9,34,17.9,34,17.8z M32.5,17c-0.1,0.2-0.2,0.4-0.2,0.7
	c0,0.1,0,0.1,0,0.2l0,0c0,0.1,0,0.1,0,0.2c0,0.1,0,0.1,0.1,0.1l0,0c0.4-0.1,0.6-0.4,0.9-0.7c0.1-0.1,0.1-0.4,0-0.5
	C33.1,17,33.1,17,33,16.9c-0.1,0-0.1,0-0.2,0C32.6,17,32.5,17,32.5,17z M33.1,18.6c0,0.1,0,0.1,0,0.2c0,0.2,0.2,0.5,0.6,0.5
	c0.1,0,0.1,0,0.2,0c0.2,0,0.5-0.1,0.5-0.5c0.1-0.2,0-0.5-0.2-0.7C34,18,33.7,17.9,33.5,18C33.2,18.3,33.1,18.4,33.1,18.6z
	 M32.4,21.9C32.4,21.9,32.4,21.8,32.4,21.9c-0.1-0.1-0.1-0.1-0.2,0c-0.1,0.2-0.4,0.5-0.6,0.6l0,0l0,0c0-0.1,0-0.2,0-0.4
	c0-0.2,0-0.2,0.2-0.2c0,0,0.1,0,0.1-0.1c0.1-0.1,0.2-0.2,0.2-0.5v-0.1v-0.1H32c-0.1,0.1-0.1,0.1-0.2,0.1c-0.1,0-0.1,0-0.1-0.1
	s-0.1-0.1-0.1-0.2c-0.1-0.1-0.2,0-0.2,0.1s-0.1,0.1-0.2,0l-0.1-0.1c-0.1,0-0.1,0-0.1,0.1s0,0.4,0.1,0.5l0,0c0.2,0.2,0.1,0.5,0.1,0.7
	c-0.1-0.1-0.2-0.2-0.4-0.4c0,0,0-0.1-0.1-0.1c-0.1-0.1-0.2,0-0.2,0.1c0,0.2,0,0.6,0.2,0.8c0,0,0.1,0.1,0,0.1c-0.1,0.5,0,0.8,0.2,1.3
	c0,0.1,0.1,0.2,0.2,0.2c0.1,0.1,0.2,0.1,0.2,0c0.1-0.1,0.2-0.2,0.4-0.4c0,0,0.1-0.1,0.1-0.2c0.1-0.1,0.1-0.4,0.1-0.6
	c0-0.1,0-0.4-0.1-0.5v-0.1C32.2,22.5,32.4,22.2,32.4,21.9z M29.5,26.3C29.5,26.3,29.5,26.2,29.5,26.3c0.1-0.1,0.1-0.2,0.1-0.4
	c0-0.1,0-0.1,0-0.2c0-0.2-0.4-0.7-0.7-0.7c-0.1,0-0.4,0-0.5,0c-0.4,0.1-0.6,0.6-0.6,0.9c0,0.2,0.1,0.5,0.4,0.7
	c0.1,0.1,0.2,0.1,0.5,0.1l0,0c0.2,0,0.4,0,0.6-0.1C29.4,26.5,29.5,26.4,29.5,26.3z M32.7,25.5c0.1-0.1,0.1-0.2,0.1-0.4l0,0
	c0-0.1-0.1-0.1-0.1-0.1c-0.1,0.1-0.2,0.4-0.1,0.5C32.5,25.5,32.6,25.6,32.7,25.5z M32.1,26.6L32.1,26.6
	C32.1,26.8,32.1,26.8,32.1,26.6c0.2,0,0.4,0,0.6-0.1c0.1-0.1,0.1-0.1,0.1-0.2c0,0,0,0-0.1-0.1c-0.1,0-0.1,0.1-0.2,0.1
	C32.2,26.4,32.1,26.5,32.1,26.6z M33.8,27c-0.1-0.1-0.2-0.1-0.5-0.1h-0.1c-0.2,0.1-0.6,0.4-0.6,0.7c0,0,0,0.1-0.1,0.1
	c0-0.1-0.1-0.2-0.1-0.5c0-0.2-0.2-0.2-0.4-0.2l-0.1,0.1c0,0.1-0.1,0.1-0.1,0.1c-0.1,0-0.1,0-0.1-0.1c0-0.1,0-0.4,0-0.5
	c0,0,0-0.1,0.1-0.1c0.1-0.1,0.2-0.2,0.1-0.4c0-0.1,0-0.1,0.1-0.2l0.1-0.1c0.1-0.1,0.1-0.1,0-0.1H32c0,0-0.1,0-0.1-0.1
	c-0.1-0.2-0.2-0.5-0.6-0.5c-0.2,0-0.5,0.1-0.5,0.4c0,0,0,0.1-0.1,0.1h-0.1c0,0-0.1,0.1,0,0.1l0,0c0,0.1,0.1,0.2,0.2,0.2v0.1
	c0,0.1,0,0.2,0.1,0.4c0.1,0.1,0.1,0.2,0.1,0.5c0,0.1,0,0.2,0,0.5c0,0-0.1,0-0.1-0.1c-0.1-0.1-0.2-0.1-0.5-0.2c-0.1,0-0.1,0-0.1,0.1
	c0,0.1,0,0.4,0.1,0.5c0,0.1,0,0.1-0.1,0.1c-0.1-0.1-0.1-0.2-0.2-0.4c-0.1-0.4-0.4-0.5-0.6-0.5c-0.1,0-0.4-0.1-0.5,0c0,0,0,0-0.1,0.1
	c0,0.1,0,0.1,0,0.1s0,0,0.1,0c0.1,0,0.4,0.1,0.5,0.2c0.1,0.1,0.1,0.1,0.2,0.2c-0.1,0-0.1,0-0.1,0c-0.2,0-0.4,0-0.6,0
	c-0.1,0-0.1,0-0.1,0.1s0.1,0.2,0.1,0.4c0.4,0.4,0.7,0.6,1.2,0.7c0.2,0.1,0.6,0.1,0.9,0h0.1c0,0.2,0,0.5,0,0.8l0,0
	c-0.4-0.1-0.6-0.4-1-0.1c0,0.1,0.1,0.1,0.1,0.1c0.2,0.2,0.4,0.5,0.6,0.7l0,0c0.1,0.2,0.2,0.5,0.4,0.8c0,0.1,0.1,0.1,0.2,0.1
	c0,0,0,0,0.1-0.1c0.1-0.2,0.1-0.5,0.2-0.6c0.1-0.4,0.2-0.6,0.6-0.8l0.1-0.1v-0.1c-0.2,0-0.5-0.1-0.7,0l0,0c0-0.2,0-0.5,0-0.7H32
	c0.2,0,0.4,0,0.6-0.1c0.1,0,0.1-0.1,0.2-0.1c0.2-0.2,0.6-0.4,1-0.6c0.1,0,0.1-0.1,0.2-0.2c0-0.1-0.1-0.2-0.1-0.2c-0.1,0-0.1,0-0.2,0
	c0-0.1,0.1-0.1,0.1-0.2c0,0,0.1,0,0.1-0.1c0.1-0.1,0.2-0.1,0.4-0.1l0,0c0,0,0,0,0.1,0c0,0,0,0,0-0.1C34,27.1,34,27.1,33.8,27z
	 M34.4,25c-0.2-0.1-0.7-0.1-1,0.1c-0.2,0.1-0.4,0.4-0.4,0.6v0.1c0,0.1,0,0.2,0.1,0.4c0,0.1,0.1,0.1,0.1,0.2c0.1,0.2,0.4,0.2,0.6,0.2
	c0.1,0,0.2,0,0.4,0s0.4-0.1,0.4-0.4c0-0.1,0.1-0.1,0.1-0.2v-0.1c0-0.2,0-0.4,0-0.6C34.8,25.2,34.6,25.1,34.4,25z M30.2,25.5
	c0.2,0,0.2-0.1,0.1-0.2C30.2,25,30,25,29.8,24.9h-0.1V25c0,0.1,0.1,0.2,0.2,0.4C29.9,25.5,30,25.5,30.2,25.5z M35.1,23.2
	c-0.4,0-0.7,0-1.1,0c-0.1,0-0.1,0-0.2,0.1c-0.1,0-0.1,0.1-0.2,0.1s-0.4-0.1-0.5-0.1c-0.1,0-0.1,0-0.1,0.1c0,0.2-0.1,0.4-0.1,0.6
	c0,0.1,0,0.2-0.1,0.2c0,0.1-0.1,0.2-0.2,0.4c-0.1,0.1-0.4,0.2-0.5,0.4c0,0-0.1,0.1,0,0.1l0.1,0.1c0.1,0,0.1,0,0.2-0.1
	c0.2-0.2,0.5-0.4,0.9-0.5h0.1c0.5,0,1-0.1,1.5-0.2l0,0c0.1,0,0.1-0.1,0.1-0.1c0-0.1-0.1-0.1-0.1-0.2l0,0l0,0
	c0.2-0.1,0.5-0.2,0.7-0.5v-0.1C35.1,23.2,35.1,23.2,35.1,23.2z M29.3,19.6c0.2,0,0.5-0.2,0.5-0.6s-0.2-0.6-0.6-0.6
	c-0.4,0-0.6,0.2-0.6,0.6C28.6,19.3,28.8,19.6,29.3,19.6z M29.2,18.2c0.1,0,0.1,0,0.1-0.1c0,0,0-0.1,0.1-0.1c0-0.1,0-0.2,0-0.4
	l-0.1-0.1c-0.2-0.1-0.2,0-0.2,0.1v0.1l0,0c0,0.1,0,0.1,0,0.2C28.9,18,29,18.2,29.2,18.2z M29.9,26.6l0.1,0.1c0,0,0.1,0,0.2,0
	c0.1,0,0.1,0,0.1-0.1l0,0c0.1-0.1,0.1-0.1,0-0.1h-0.1c-0.1,0-0.1-0.1-0.2-0.2c0,0-0.1-0.1-0.1,0c-0.1,0-0.1,0-0.1,0.1v0.1
	C29.8,26.5,29.8,26.6,29.9,26.6z M28.4,22.6l0.1,0.1c0.1,0.1,0.4,0.1,0.6,0.1c0.1,0,0.2,0,0.2-0.1l0,0c0.2-0.1,0.4-0.4,0.4-0.7
	c0-0.2,0-0.5-0.2-0.7c-0.1-0.1-0.1-0.1-0.2-0.2c-0.1,0-0.1-0.1-0.2-0.1c-0.2-0.1-0.4-0.1-0.6,0s-0.4,0.2-0.5,0.6
	c0,0.1,0,0.2-0.1,0.4c0,0.1,0,0.1,0,0.2C28.2,22.4,28.3,22.5,28.4,22.6z M27.9,23.6c0.1,0.1,0.4,0.2,0.5,0.4c0,0,0,0,0.1,0
	c-0.1,0.1-0.2,0.2-0.4,0.4c0.1,0.1,0.2,0.2,0.5,0.2c0.2,0,0.5,0,0.7,0c0.2-0.1,0.5,0,0.7,0.1c0.1,0.1,0.4,0.2,0.5,0.2
	c0.1,0,0.1,0.1,0.2,0.1l0,0H31v-0.1c-0.1-0.1-0.1-0.2-0.2-0.4c-0.1-0.2-0.4-0.4-0.6-0.5L30,23.9c0-0.1,0-0.2,0-0.4v-0.1
	c0-0.1-0.1-0.2-0.2-0.1l0,0c-0.1,0.1-0.2,0.1-0.4-0.1c0,0-0.1-0.1-0.2-0.1c-0.4,0-0.7-0.1-1.1,0c0,0-0.1,0-0.1,0.1
	C27.8,23.6,27.8,23.6,27.9,23.6z M27.3,8.2c-3.7,2.2-6.6,4.4-9.8,7.4c-2.5,2.4-4.8,4.8-6.9,7.7c1.6-0.4,3.2-0.6,4.7-0.9
	c0.4-0.1,0.7-0.2,1.1-0.1c1,0.2,1.7-0.4,2.6-0.8c0.9-0.5,1.6-0.9,2.5-1.4c0.7-0.4,1.5-0.6,2.3-0.5c0.9,0,1.2,0.5,1,1.3
	c-0.4,1.1-1.1,1.9-2,2.6c-2.1,1.7-4.4,2.8-7,3.7c-0.5,0.1-0.9,0.5-1.1,0.9c-0.5,0.9-0.9,1.9-1.3,2.7c-0.1,0.4-0.4,0.7-0.6,0.9
	c-0.2,0.1-0.7,0.2-1,0.1c-0.2-0.1-0.2-0.6-0.1-0.9c0.1-0.5,0.5-0.9,0.7-1.4c0.9-1.4,1.7-3,2.6-4.4c0.2-0.5,0.5-0.9,0.9-1.5
	c-1.6,0.4-3.1,0.6-4.4,0.9c-0.4,0.1-0.9,0.2-1.2,0.4c-0.5,0.1-0.9,0.5-0.9,1.1c-0.2,2.2-1.2,4.2-2.3,6.1c-1.6,2.8-3.2,5.7-4.8,8.5
	C2,41,1.7,41.4,1.3,41.8C0.9,42.2,0.1,42,0,41.3c0-0.5,0-0.9,0.1-1.3c0.9-3,2.1-5.8,3.8-8.4c1.3-1.8,2.6-3.7,3.8-5.4
	c0.4-0.5,0.6-0.9,0.1-1.5c-0.4-0.4-0.5-0.8-0.1-1.2c0.4-0.4,1-0.4,1.6,0c0.1,0.1,0.2,0.1,0.4,0.2c1.1-1.3,2.2-2.5,3.2-3.7
	c0.5-0.6,1.1-1.3,1.6-1.9l0.1-0.1l0.1-0.1l-0.4,0.2c-0.9,0.6-1.6,1.1-2.5,1.7c-1.8,1.2-3.7,2.5-5.5,3.5c-1.1,0.7-2.6,0.9-3.8,1.5
	c-0.6,0.2-2.2,0.4-1.8-0.4c0.4-0.2,1.2-0.5,1.6-0.6c2.8-0.8,4.9-2.1,7.1-3.8C14,17,18.5,13.7,23,10.5c1.1-0.8,2.2-1.8,3.4-2.6
	c0.7-0.4,1.1-0.6,1.6-0.5C27.9,7.2,28.1,7.7,27.3,8.2z M7.2,27.9L7.2,27.9C4.5,31.5,2,35,1.1,39.4c0.4-0.2,0.6-0.6,0.7-0.9
	c0.7-1.2,1.5-2.4,2.2-3.7c1-1.8,1.8-3.5,2.7-5.3C7,29,7.1,28.5,7.2,28.1C7.2,27.9,7.4,27.8,7.2,27.9z M15.7,26.2
	c1.1-0.5,2-0.8,2.8-1.3c1.6-0.7,3.1-1.8,4.2-3.1c0.4-0.4,0.7-0.7,0.6-1.3C21.3,20.5,17.6,23.1,15.7,26.2z M170,12
	c0,0.1,0,0.5-0.1,0.5c-0.1,0.1-0.2,0.2-0.4,0.2c-0.7-0.1-1.5-0.4-2.1-0.5c-0.6-0.1-1.1-0.4-1.7-0.6c-0.4-0.1-0.2-0.1-0.7-0.2
	c-0.6-0.1-0.7-0.2-0.9-0.2c-0.6-0.1-0.5-0.1-1-0.2c-0.4-0.1-0.7-0.1-1.1-0.2c-0.4-0.1-0.7-0.1-1-0.1c-1-0.1-2.9-0.2-3.9-0.4
	c-0.6,0-1.1,0-1.7,0c-0.2,0-0.6,0.2-0.7,0.5c-0.7,2.5-1.5,5.1-2.2,7.7c-0.5,1.8-1,4.5-1.6,6.6c-0.4,1.2-0.1,0.8-0.6,2.7
	c-0.4,1.3-0.6,2.7-0.9,4c-0.1,0.9-0.5,2.5-0.6,3.4c-0.6,1.8-0.4,3.1-1.2,4.8c-0.1,0.1-0.4,0.2-0.5,0.2c-0.1,0-0.4,0-0.5,0
	c-0.2-0.1-0.4-0.2-0.4-0.5c-0.1-0.2-0.1-0.7,0-0.9c0.6-3.2,1.1-4.8,1.6-7.4c0.4-1.9,0.7-3.7,1.1-5.5c0.4-1.3,0.7-2.6,1.1-3.9
	c0.2-1.1,0.6-2.1,0.9-3.2c0-0.1,0-0.2,0.1-0.4c0.1-0.4,0.2-0.6,0.4-0.9c0.1-0.4,0.1-0.6,0.2-0.9c0-0.1,0.1-0.2,0.1-0.4
	c0.1-0.2,0.1-0.5,0.2-0.6v-0.1c0.5-1.5,1.5-4,0.2-2.2c-0.4,0.6-1.5,1.9-1.8,2.5c-1.2,1.7-2.3,3.3-3.6,5c-0.9,1.3-1.7,2.6-2.7,3.9
	c-0.4,0.5-0.9,0.9-1.2,1.4c-0.2,0.4-0.4,0.2-0.7,0.8l0,0c-0.6,0.7-1.5,1.4-2.3,1.9c-0.4,0.2-0.7,0.4-1.1,0.5
	c-0.2,0.1-0.5,0.1-0.7,0.1c-1.1,0.2-2.2-0.6-2.6-1.8c0-0.1,0-0.1-0.1-0.2c-0.2-1.7-0.4-2.7,0-4.6l0.4-1.8c0.2-1.1-1.2,0.9-1.3,1.2
	c-0.9,1.1-1.6,2.2-2.3,3.3c-0.6,0.8-1.2,1.8-1.7,2.6c-0.5,0.7-1.2,0.8-1.6,0.2s0.1-1.7,0.2-2.4c0.2-1.7,0.9-4.4,0.9-4.2
	c0.1-0.9-1.5,0.5-2.1,1.1c-1.6,1.3-3.2,2.7-4.8,4.1c-1.3,1.2-2.1,1.2-3.6-0.2c-1.2,0.7-2.6,1.4-3.8,2c-0.5,0.2-1,0.4-1.3,0.5
	c-0.1,0-0.5,0.1-0.6-0.1l0,0v-0.1c0-0.2,0.1-0.4,0.2-0.5s0.4-0.2,0.5-0.4c0.4-0.2,0.9-0.4,1.2-0.6c1.2-0.5,2.3-1.2,3.3-2.1
	c0.1-0.1,0.4-0.4,0.4-0.6c0.2-1.2,0.7-2.7,2.2-3.8c0.5-0.4,1.2-0.7,1.8-0.2c0.9,0.7,0.4,1.4-0.1,2.2c-0.5,0.9-1.2,1.8-2,2.2
	c-0.5,0.4-0.6,0.7-0.6,0.8c0,0.4,0.5,0.7,1.1,0.4c2.7-1.4,4.7-4.2,7.1-6.1c0.2-0.2,0.5-0.5,0.7-0.6s0.6-0.5,1.1-0.4
	c0.6,0.1,0.5,0.9,0.5,1.3c-0.1,1.2-0.4,2.4-0.5,3.4c0,0.1-0.2,1.1-0.2,1.2c1.7-1.8,2.9-4,4.5-5.8c2.3-1.9,2.2,0.4,1.8,1.7
	c-0.5,2-0.6,4-0.1,6c0.2,1.2,1,0.9,1.5,0.7c0.6-0.4,1.2-0.7,1.7-1.2c2.3-1.9,3.9-3.9,5.5-6.1c1.1-1.4,2.2-2.8,3.2-4.2
	c1.1-1.5,2.2-3,3.3-4.5c0.4-0.6,0.7-1.1,1.2-1.8c-0.9-0.1-1.5-0.1-2.1-0.1c-2.1,0.1-4.2,0.1-6.3,0.2c-1.6,0.1-3.1,0.2-4.5,0.5
	c-0.6,0-1.2,0-1.8,0.1c-0.4,0-0.9,0-1.1-0.1c-0.4-0.1-0.4-0.6-0.2-0.9c0-0.1,0.1-0.1,0.1-0.2c0.1-0.1,0.4-0.1,0.5-0.1
	c1.7-0.1,3.4-0.5,5.3-0.7c1.7-0.2,2.5-0.2,3.6-0.4c2.3-0.2,4.7-0.4,7-0.5c1,0,1,0.2,1.8-1.3c1.1-1.9,2-3.3,2.9-5.2
	c1.8-2.8,1.1,0.4,0.7,0.8c-0.5,0.7-0.9,1.5-1.2,2.4c-0.6,1.1-1.2,2-1.8,3.2c0.5,0,0.9,0,1.2,0.1l0,0c0.4,0,1.1,0,1.5,0.1
	c2.1,0.1,2.7,0.1,3.8,0.2c1,0.1,2.1,0.2,3.1,0.5c1,0.2,2,0.6,2.9,0.8c0.5,0.1,0.9,0.1,1.3,0.4C169.6,10.2,170,11,170,12z M120,24.9
	c1.6-1.2,2-2.1,2.1-2.1c0.4-0.5,0-0.7-0.1-0.7c-0.9,0-2.1,2.4-2.2,2.6C119.6,25,119.9,25,120,24.9z M113.3,21.8
	c-1.1,3.2-2.2,6.4-3.3,9.4c-1,2.7-1.8,5.5-2.7,8.3c0,0.1-0.2,0.5-0.7,0.6c-0.2,0-0.4,0-0.4,0c-0.6-0.1-0.7-0.8-0.5-1.4
	c1-2.8,2-5.7,2.8-8.4c0.7-2.2,1.5-4.5,2.3-6.6c0.7-2,2.6-5.8,2.2-5.8c-0.4-0.1-1.1,0.4-1.6,0.8c-1.8,1.9-3.4,4-4.8,6.3
	c-0.5,0.7-1,1.4-1.5,2.1c-0.1,0.1-0.1,0.2-0.2,0.4v0.1c-0.4,0.5-0.7,0.8-1,1.3c-0.2,0.5-0.6,0.9-1.1,1.3c-0.1,0.1-0.4,0.2-0.6,0.4
	h-0.1l0,0c0,0,0,0-0.1,0h-0.1h-0.1c-0.1,0-0.1,0-0.1-0.1c-0.1-0.1-0.1-0.2-0.1-0.4c0-0.1,0-0.2,0-0.4c0-0.1,0-0.2,0.1-0.4
	c0.6-1.5,1.2-3.1,2-4.6c0.6-1.5,1.6-3.8,2.2-5.3c-0.1-0.1-0.2,0.1-0.2,0.1c-0.7,0.8-2.6,3.3-2.7,3.5c-1.5,2.1-2.5,3.7-3.9,5.8
	c-0.2,0.4-0.5,0.7-0.9,0.9c-0.2,0.1-0.6,0.1-0.9,0C97,29.6,97,29,97,28.8c0.2-0.7,0.4-1.3,0.6-2c0.7-1.8,1.7-3.8,2.5-5.9l-0.2,0.2
	c-1.1,0.9-2.2,2-3.2,3c-1.5,1.3-2.1,1.7-4.7,3c-0.6,0.4-1.3,0.6-1.8,0.7c-1.8,0.5-2.6,0.5-3.7-1.1c-0.9,0.4-1.7,0.7-2.6,1.1
	c-0.2,0.1-0.7,0.1-0.9-0.1c-0.1-0.4,0.2-0.7,0.5-0.8c0.2-0.1,1-0.4,1.5-0.6c0.7-0.4,1.2-0.8,1.7-1.7c0.7-1.7,2-3.1,3.7-4
	c0.6-0.4,1.3-0.5,2,0.1s0.2,1.2-0.1,1.8c-1,1.3-2.2,2.2-3.7,3.1c-0.4,0.2-1.1,0.4-0.7,0.9c0.2,0.4,0.9,0.6,1.2,0.5
	c0.7-0.1,1.5-0.5,2.1-0.7c2.5-1.2,4.7-2.5,6.5-4.4c1.1-1.1,2.3-2.1,3.4-3.2c0.9-0.6,0.5,0.6,0.4,1.3c-0.5,1.4-3.6,9-2.1,6.5
	c0.4-0.5,2.1-3,2.7-3.7c1.2-1.4,2.1-2.8,3.4-4.2c0.2-0.2,0.7-0.6,1.2-0.5c0.4,0,0.7,0.6,0.5,1.1c-0.4,1.2-1,2.5-1.3,3.8
	c-0.1,0.2-2.1,5-1.1,3.4c0.6-0.7,3.1-4.5,3.6-5.1c1.5-2,1.7-2,3.1-3.3c0.5-0.5,1.1-0.9,1.6-1.3c0.4-0.2,0.7-0.4,1.2-0.5
	c0.6-0.1,1,0.4,0.7,0.9C114.4,18.5,113.7,20.2,113.3,21.8z M88,24.2c1.3-0.1,3.6-2.6,3.2-3C89.5,21.1,87.6,23.8,88,24.2z M87.6,15.2
	c-1.6,2.2-3.2,4.2-4.7,6.4c-1.5,2-2.7,4-3.9,6.1c-1,1.8-2,3.7-2.9,5.4c-0.1,0.2-0.4,0.5-0.5,0.7c-0.4,0.4-0.9,0.8-1.3,0.9
	c-0.1,0-0.2,0-0.5,0c-0.1,0-0.1,0-0.2-0.1s-0.1-0.2-0.2-0.5c0-0.1,0-0.4,0-0.5c0-0.2,0-0.5,0-0.8c0.4-1.9,0.6-3.9,1-5.8
	s0.6-3.8,0.9-5.8c0-0.4-0.5-0.1-0.7,0c-1,0.4-2.1,0.8-3.1,1.2c-0.5,0.2-0.7,0.6-0.9,1.1c-0.1,0.4-0.4,0.8-0.5,1.2
	c-0.1,0.1,0,0.1-0.1,0.1c0,0,0,0.1-0.1,0.1c-0.1,0.1-0.1,0.2-0.2,0.5c-0.1,0.2-0.4,0.5-0.6,0.7c-0.2,0.2-0.6,0.4-1,0.4
	c-0.1,0-0.4,0-0.5,0s-0.1,0-0.2-0.1c-0.1,0-0.4-0.2-0.5-0.2c-0.4-0.4-0.2-0.5-0.5-0.8c-1.1,1.1-2,2.1-3.1,3.2
	c-1.5,1.5-3.1,3-4.5,4.4c-0.6,0.5-1.3,0.9-2.1,1.1c-1.1,0.1-1.8-0.1-2.2-0.7c-0.9-1.2-0.6-2.4-0.2-3.7c0.6-2.4,1.6-4.7,2.7-7
	c0.2-0.6,0.2-0.7,1-2.1c0.4-0.8,0.2-1.2-0.4-1.1c-0.5,0.4-0.9,0.6-1.3,0.9c-2.2,1.9-4,4-5.5,6.5c-0.6,1.1-1.3,2-2.1,3.1
	c-0.1,0-0.1,0.1-0.2,0.1c-0.1,0-0.1,0.1-0.2,0.1h-0.1h-0.1h-0.1h-0.1h-0.1c0,0,0,0-0.1,0s-0.1,0-0.2-0.1l0,0l0,0h-0.1
	c-0.1,0-0.2-0.1-0.2-0.2v-0.1v-0.1c0-0.1,0-0.2,0-0.4l0,0c0.1-0.4,0.2-0.7,0.4-1.2c0.6-1.5,1.3-3.1,2.2-5c0.5-1.1,1.1-2.4,0.9-3
	c-0.6-0.6-1.8,0.5-2.5,1.1c-2.6,2.2-5,4.5-7.6,6.8c-1,0.9-2,2-2.9,3c-0.5,0.6-1.1,0.1-1.2-0.1c0-0.4,0-0.4,0.2-0.8
	c0.4-0.6,0.5-0.7,0.9-1.2c1.5-2,2.9-3.9,4.4-5.9c1-1.3,2-2.7,2.9-4c0.7-0.8,1.1-1.5,1.8-2.5c0.9-1.2,2.2-1.7,1.2-0.2
	c-0.2,0.4-0.7,0.8-1,1.2c-1.1,1.4-1.1,1.8-2.8,4.1c-0.6,0.8-1.6,2-2.2,2.8c-0.4,0.6-0.1,0.5,0.2,0.2c0.9-0.7,1.7-1.3,2.5-2
	c1.2-1.1,3.3-3.3,5.4-3.9c1.3-0.4,1.8,0.6,1.7,1.5c-0.2,1.3-0.9,2.5-1.2,3.7c-0.2,0.6-0.7,1.7-1,2.5c0,0.1,0.1,0.1,0.4-0.2
	c1.3-1.7,2.2-3,3.3-4.2c0.5-0.6,1.1-1.2,1.7-1.7c0.5-0.4,1.6-1.3,2.6-1.8c0.4-0.2,1-0.4,1.3-0.2c0.4,0.1,0.4,0.7,0.4,1.2
	c-0.1,2-1.1,3.5-1.7,5.3C56.1,27,54.8,29,55,31.4c0,0.6,0.2,0.8,0.5,0.9c0.5,0.5,1.6,0,1.6,0c1.7-1.3,2.3-2.1,2.8-2.6
	c0.6-0.6,2.2-2.2,3.4-3.5c1.6-1.7,2.9-3.5,4.8-5c0.1-0.1,0.1-0.1,0.2-0.2c0.5-0.2,1-0.4,1.5-0.1c0.2,0.1,0.5,0.4,0.9,0.4
	s0.6,0,1-0.1c0.6-0.2,1.3-0.5,2-0.7c0.1,0,0.2-0.1,0.2-0.1c0.4-0.1,0.4-0.1,1-0.4c0.9-0.4,1.3-0.1,1.3,0.8c-0.1,2.5-0.5,4.8-0.9,7.3
	C75.3,29,75,31.1,74.9,32c0.7-1.2,1.8-3.7,2.6-4.7c1.1-1.8,2.2-3.4,3.4-5.2c0.6-0.8,1.2-1.8,1.8-2.6c1.3-1.7,2.5-3.3,3.9-5
	c0.1-0.2,1.1-0.9,1.3-1.1C88.7,13.3,88.1,14.4,87.6,15.2z M69.1,22.5c-1.3,0-2.3,2.6-1.1,2.8C69.1,25.7,70.4,22.5,69.1,22.5z"/>
</svg>
