<svg xmlns="http://www.w3.org/2000/svg" fill="none" viewBox="0 0 158 32" height="32" width="158">
<g clip-path="url(#clip0_20405_2558)">
<path fill="#231F20" d="M56.4778 31.4999C48.1522 31.4999 41.9526 24.2654 41.9526 15.9838C41.9526 7.66114 47.9361 0.42561 56.2613 0.42561C58.4292 0.42561 61.1612 1.55452 63.1988 1.55507C64.7508 1.55507 65.3667 0.551105 65.3667 0.551105H65.627V10.3386H65.3667C65.3667 6.19785 60.5976 0.676736 56.2613 0.676736C54.2661 0.676736 52.7053 1.05309 51.4484 2.30817C49.3669 4.35766 48.5434 8.62368 48.5434 15.9842C48.5434 23.3031 49.3669 27.6112 51.4484 29.661C52.7053 30.8736 54.4834 31.2916 56.4778 31.2916C61.8548 31.2916 66.2338 25.8125 66.2338 20.3334H66.4511C66.4511 22.9955 65.516 25.1142 64.9426 26.0763C64.4891 26.8369 61.6334 31.5002 56.4779 31.5002"></path>
<path stroke-miterlimit="10" stroke-width="0.451864" stroke="#231F20" d="M56.4778 31.4999C48.1522 31.4999 41.9526 24.2654 41.9526 15.9838C41.9526 7.66114 47.9361 0.42561 56.2613 0.42561C58.4292 0.42561 61.1612 1.55452 63.1988 1.55507C64.7508 1.55507 65.3667 0.551105 65.3667 0.551105H65.627V10.3386H65.3667C65.3667 6.19785 60.5976 0.676736 56.2613 0.676736C54.2661 0.676736 52.7053 1.05309 51.4484 2.30817C49.3669 4.35766 48.5434 8.62368 48.5434 15.9842C48.5434 23.3031 49.3669 27.6112 51.4484 29.661C52.7053 30.8736 54.4834 31.2916 56.4778 31.2916C61.8548 31.2916 66.2338 25.8125 66.2338 20.3334H66.4511C66.4511 22.9955 65.516 25.1142 64.9426 26.0763C64.4891 26.8369 61.6334 31.5002 56.4779 31.5002"></path>
<path stroke-miterlimit="10" stroke-width="0.451864" stroke="#231F20" fill="#231F20" d="M109.401 20.5431V30.7893H87.7319L103.384 1.38842H98.4361C92.9735 1.38842 89.5752 6.36531 89.5752 11.2163H89.2919V1.13716H109.421L93.7361 30.5392H100.095C105.516 30.5392 109.158 25.3526 109.158 20.543L109.401 20.5431Z"></path>
<path fill="#231F20" d="M128.002 2.30817C126.834 1.05309 125.341 0.676736 123.486 0.676736C121.711 0.676736 120.22 1.05309 119.051 2.30817C117.115 4.35766 116.309 8.62314 116.309 15.9842C116.309 24.3913 117.116 27.6112 119.052 29.661C120.221 30.8736 121.712 31.2916 123.487 31.2916C125.342 31.2916 126.834 30.8736 128.002 29.661C129.938 27.6111 130.744 24.3913 130.744 15.9842C130.744 8.62287 129.938 4.3582 128.002 2.30817M123.486 31.4999C116.188 31.4999 110.22 24.5576 110.22 15.9838C110.22 7.66114 115.784 0.42561 123.486 0.42561C130.865 0.42561 136.832 7.36818 136.832 15.9838C136.832 24.5576 130.865 31.4999 123.486 31.4999Z"></path>
<path stroke-miterlimit="10" stroke-width="0.451864" stroke="#231F20" d="M128.002 2.30817C126.834 1.05309 125.341 0.676736 123.486 0.676736C121.711 0.676736 120.22 1.05309 119.051 2.30817C117.115 4.35766 116.309 8.62314 116.309 15.9842C116.309 24.3913 117.116 27.6112 119.052 29.661C120.221 30.8736 121.712 31.2916 123.487 31.2916C125.342 31.2916 126.834 30.8736 128.002 29.661C129.938 27.6111 130.744 24.3913 130.744 15.9842C130.744 8.62287 129.938 4.3582 128.002 2.30817M123.486 31.4999C116.188 31.4999 110.22 24.5576 110.22 15.9838C110.22 7.66114 115.784 0.42561 123.486 0.42561C130.865 0.42561 136.832 7.36818 136.832 15.9838C136.832 24.5576 130.865 31.4999 123.486 31.4999Z"></path>
<path stroke-miterlimit="10" stroke-width="0.451864" stroke="#231F20" fill="#231F20" d="M156.595 9.96148C156.595 6.07235 153.941 1.38842 148.835 1.38842H144.299V15.4408H145.345C148.601 15.4408 150.933 12.6801 150.933 9.79443H151.134V21.3375H150.933C150.933 18.4937 148.601 15.6912 145.345 15.6912H144.299V30.5394H146.298C153.013 30.5394 157.532 25.436 157.532 21.1289H157.774V30.7893H134.931V30.5394H138.791V1.38815H134.931V1.13689H156.836V9.96121L156.595 9.96148Z"></path>
<path stroke-miterlimit="10" stroke-width="0.451864" stroke="#231F20" fill="#231F20" d="M19.8422 1.13702V1.38842L23.765 1.38815V21.5888L10.635 1.13702H0.226074V1.38842H4.10787L4.10814 30.5392H0.226074V30.7893H8.31753V30.5392H4.39444V1.68097L23.724 31.3338H23.7244H24.0101V1.38815H29.894H35.5332L39.4569 1.38842V1.13702H19.8422Z"></path>
<path stroke-miterlimit="10" stroke-width="0.451864" stroke="#231F20" fill="#231F20" d="M21.4233 1.13702V1.38842L25.5503 1.38815H25.8082H31.9981V30.5385L27.9134 30.5392V30.7893H42.0583V30.5392L37.9304 30.5385V1.38815L42.0583 1.38842V1.13702H21.4233Z"></path>
<path stroke-miterlimit="10" stroke-width="0.451864" stroke="#231F20" fill="#231F20" d="M89.8082 15.1661H65.0691V15.4209H89.8082V15.1661Z"></path>
<path stroke-miterlimit="10" stroke-width="0.451864" stroke="#231F20" fill="#231F20" d="M77.5668 3.14658H77.312V27.8858H77.5668V3.14658Z"></path>
</g>
<defs>
<clipPath id="clip0_20405_2558">
<rect transform="translate(0 0.200001)" fill="white" height="31.5263" width="158"></rect>
</clipPath>
</defs>
</svg>
