<svg id="Layer_1" xmlns="http://www.w3.org/2000/svg" version="1.1" viewbox="0 0 1920 364.92">
  <!-- Generator: Adobe Illustrator 29.4.0, SVG Export Plug-In . SVG Version: 2.1.0 Build 152)  -->
  <defs>
    <style>
      .st0 {
        fill: #111;
      }
    </style>
  </defs>
  <path class="st0" d="M182.72,144.03c-17.33,0-33.63,5.09-33.63,14.94,0,22.24,99.85.34,99.85,45.67,0,26.32-28.87,39.9-58.93,39.9-33.27.01-67.74-15.78-67.74-47.88h24.81c0,19.02,22.4,27.5,43.47,27.5,17.98,0,34.8-6.62,34.8-18.5,0-22.93-101.03-1.7-101.03-43.98,0-25.29,29.9-38.02,60.45-38.02s62.65,13.93,62.65,41.94h-24.79c0-14.94-20.72-21.56-39.89-21.56ZM305.64,243.19h-23.09v-118.86h23.09v118.86ZM410.59,243.19l-42.3-92.37h-.49v92.37h-23.11v-118.86h35.84l43.79,96.79,43.81-96.79h35.84v118.86h-23.09v-92.37h-.51l-42.3,92.37h-27.49ZM598.78,122.64c32.27,0,66.39,20.71,66.39,61.13s-34.13,61.13-66.39,61.13-66.39-20.71-66.39-61.13,34.13-61.13,66.39-61.13ZM557.84,183.76c0,27,21.4,39.9,40.93,39.9s40.93-12.9,40.93-39.9-21.4-39.9-40.93-39.9-40.93,12.9-40.93,39.9ZM805.87,221.12h.49v-96.79h23.11v118.86h-37.03l-73.53-97.13h-.51v97.13h-23.09v-118.86h37.03l73.53,96.79ZM1090.49,158.8c0,16.81-10.2,33.62-30.06,33.62h-61.8v50.77h-23.09v-118.86h84.89c20.21,0,30.06,17.32,30.06,34.47ZM1050.42,172.04c10.2,0,15.28-6.96,15.28-13.76s-5.11-13.59-15.28-13.59h-51.78v27.34h51.78ZM1217.33,144.7h-76.41v26.32h58.59v20.37h-58.59v31.41h76.41v20.37h-99.5v-118.85h99.5v20.37ZM1295.29,124.33h27.51l58.06,118.86h-25.46l-12.91-26.32h-66.89l-12.91,26.32h-25.46l58.08-118.86ZM1332.64,196.49l-23.6-48.39-23.6,48.39h47.21ZM1400.73,124.33h84.89c20.21,0,30.06,17.32,30.06,34.47,0,10.36-3.9,20.71-11.53,27.17,14.26,14.26,4.4,46.69,11.53,57.22h-23.26c-5.95-11.37,3.9-50.77-15.96-50.77h-52.64v50.77h-23.09v-118.86ZM1475.61,172.04c10.2,0,15.29-6.96,15.29-13.76s-5.11-13.59-15.29-13.59h-51.78v27.34h51.78ZM1608.74,122.64c27,0,55.36,14.6,63.84,42.96h-26.83c-7.13-14.6-22.6-21.73-37.03-21.73-19.53,0-40.93,12.9-40.93,39.9s21.4,39.9,40.93,39.9c14.94,0,31.08-7.64,37.87-23.43h26.48c-7.97,29.54-36.83,44.66-64.35,44.66-32.27,0-66.39-20.71-66.39-61.13s34.15-61.13,66.41-61.13ZM1797.74,144.7h-76.41v26.32h58.59v20.37h-58.59v31.41h76.41v20.37h-99.5v-118.85h99.5v20.37Z"></path>
</svg>