<svg height="24" fill="none" width="71" viewBox="0 0 71 24" xmlns="http://www.w3.org/2000/svg" class="h-6" aria-labelledby="svgTitle" role="img"><title id="svgTitle">Sitka Logo</title><path d="M45.0308 6.49072C44.9128 6.38453 44.842 6.21935 44.8538 6.04237C50.9419 5.39344 55.7204 6.44353 60.4399 7.49361C61.3602 7.69419 66.1269 8.15434 67.2714 6.60871C68.4159 7.29304 68.935 9.79437 67.8377 10.6439C67.649 10.7855 67.9675 11.2102 68.1091 11.4934C68.3451 11.9771 68.5811 12.4727 68.6401 13.1334C68.6519 13.2868 68.4867 13.5464 68.2861 13.57C67.9203 13.6172 67.59 13.6054 67.354 14.0891C67.236 14.3251 67.3894 14.7734 67.4484 14.8442C68.1327 15.6466 68.8406 16.2011 69.4306 16.9798C69.7491 17.4046 69.9851 17.8883 70.4217 18.1833C70.5632 18.2777 70.6458 19.5047 70.6694 19.7053L70.7992 20.8498C70.634 20.897 70.4571 20.8852 70.3273 20.7908L68.7462 19.5873C61.9148 15.5994 55.2131 16.0123 53.1601 16.2719C52.7117 16.3309 52.2634 16.2837 51.8504 16.1303C50.234 15.564 47.0719 14.3959 46.9657 14.3605C45.0426 13.6054 43.0132 12.9682 40.972 12.2957C40.6416 12.1895 40.2759 12.1777 39.9337 12.2485C36.9132 12.921 33.645 13.452 30.4121 13.9475L26.9669 14.3133C18.401 15.033 5.75271 12.6615 4.50204 12.2367C4.44305 12.1423 4.28967 11.812 4.45485 11.812C4.63183 11.812 9.6817 11.8474 9.6817 11.8474C12.3718 11.7648 14.9675 11.7176 17.8464 11.3046C24.5009 10.3607 30.6717 8.92126 37.6093 8.27233C39.8629 8.05996 42.1047 8.01276 44.3228 7.96556C45.2077 8.24873 46.9186 9.85337 49.8446 10.9153C52.7707 11.9771 53.3725 12.0125 54.9063 11.9535L56.7469 11.8592C58.3515 11.7294 57.7498 10.5731 57.4784 10.4433C57.4784 10.4433 52.9005 7.10426 45.3021 6.6559C45.2667 6.6677 45.0897 6.54971 45.0308 6.49072Z" fill="currentColor"></path><path d="M41.1842 14.384C41.4202 14.325 41.6798 14.3486 41.8922 14.4548C42.954 14.9504 43.9333 15.3633 44.9244 15.8353C46.5645 16.614 48.5231 17.0388 50.3991 17.4399C54.0449 18.2422 57.4665 18.9502 60.8764 19.7879C64.3688 20.6492 69.5484 23.5871 69.5484 23.5871C69.6074 23.6225 69.5956 23.9646 69.6074 24C62.9411 21.8763 55.5197 20.6728 46.1633 22.2538C44.8183 21.3335 38.4587 16.0713 37.3496 15.7291C37.3142 15.7173 37.2906 15.2218 37.2906 15.2218C37.2906 15.2218 40.1105 14.6436 41.1842 14.384ZM0.11278 1.85377C0.0301889 1.78298 -0.0524024 1.19304 0.0419876 1.24023C1.43424 1.86557 2.97988 2.33752 4.49012 2.76227C7.80557 3.68258 11.5104 3.97754 15.5101 3.97754C17.4923 3.97754 19.5217 3.93035 21.4331 4.04834C25.1969 4.29611 28.7366 4.87425 31.6272 6.2783C31.9104 6.40809 32.2172 6.66766 32.2054 7.02162L30.7895 7.17501L26.2824 8.41387L25.6925 8.1779C24.7958 7.82394 23.8283 7.63516 22.8608 7.62336C21.1618 7.59976 19.4391 7.62336 17.7873 7.54077C13.8937 7.35199 10.2951 6.57327 6.94426 5.87714C4.11256 5.28721 0.11278 1.85377 0.11278 1.85377Z" fill="currentColor"></path><path d="M18.9673 19.9412C18.8257 19.9176 18.3184 19.7996 18.2358 19.7878C18.1532 19.776 17.9054 19.4457 18.224 19.5047C19.1915 19.7288 21.4096 19.7406 22.6721 19.6109C22.6721 19.6109 26.2943 19.4103 27.309 19.2569C29.3384 19.1035 31.8633 18.608 31.8633 18.608C33.7157 18.313 35.4974 17.9 36.9958 17.2865C37.6329 18.2894 38.5886 18.8793 39.7449 19.1743C39.8983 19.2215 40.0871 19.3867 40.0281 19.6109C37.6683 20.1182 35.3086 20.6845 32.6657 20.9087L29.2794 21.0503C27.604 21.0149 25.8814 20.9323 24.2767 20.7671C22.4361 20.5901 20.7489 20.2126 18.9673 19.9412Z" fill="currentColor"></path><path d="M27.12 0.390696C26.884 0.272709 27.0492 -0.0222602 27.1554 0.0013373C29.0314 0.3553 30.99 0.614872 32.748 1.12222C34.4706 1.62957 35.5679 2.18411 37.2197 3.01002L40.1694 4.93322C41.1959 5.64114 41.0543 5.27538 39.4143 5.49956C37.7861 5.72373 36.9602 6.0305 35.7567 6.57324C35.3909 6.75023 33.4795 3.82413 31.4738 2.71505C30.0579 1.93633 28.6303 1.11042 27.12 0.390696Z" fill="currentColor"></path></svg>