<svg data-name="Layer 1" xmlns="http://www.w3.org/2000/svg" viewBox="0 0 405.17 93.54"><title>starr-logo</title><path d="M65.73 20.65C60.3 7.09 49.33 0 33.29 0 17.84 0 2.87 7.61 2.87 22.24c0 35.73 61.37 17.36 61.37 46.77 0 13.22-14.67 19.34-27.9 19.34-15.06 0-26.42-7.33-30.6-19.29H-.04c4.08 15.71 18.93 24.47 36.35 24.47 17.81 0 33.64-8.2 33.64-24.53 0-19.08-17.32-22.32-35.17-26.6-18.93-4.53-26.69-9.95-26.69-20.17 0-11.21 12-16.91 25.16-17.05 12.34-.13 21.06 4.48 26.65 15.46zm224.56 31.44c14-4.4 18.1-13.93 18.1-25.51 0-15.29-9.4-24.46-28.53-24.73h-32.8v90.08h5.19V53.28h28.79c1.6 0 3.42-.14 3.42-.14l25.14 38.79h6.49zm-10.65-3.88l-27.4-.12V7.04h27.61c15.35.22 22.83 7.14 22.83 19.54.01 12.7-7.67 21.63-23.04 21.63zm99.73 3.88c14-4.4 18.1-13.93 18.1-25.51 0-15.29-9.4-24.46-28.53-24.73h-32.8v90.08h5.19V53.28h28.79c1.6 0 3.42-.14 3.42-.14l25.14 38.79h6.49zm-10.65-3.88l-27.4-.12V7.04h27.64c15.35.22 22.83 7.14 22.83 19.54-.02 12.7-7.69 21.63-23.07 21.63zM189.28 1.86h-5.19l-37.71 90.08h5.58l13.38-32h42.62l13.38 32h5.62zm-21.72 52.92l19.13-45.74 19.13 45.74zM110.48 7.04H76.81V1.85h72.54v5.19h-33.68v84.89h-5.19z" fill="#041e41"/></svg>