<svg width="552" height="109" viewBox="0 0 552 109" fill="none" xmlns="http://www.w3.org/2000/svg">
<g clip-path="url(#clip0_76_1087)">
<path d="M26.8498 32.8281H12.9602L9.14673 37.702H23.7466L26.8498 32.8281Z" fill="#525252"/>
<path d="M47.7908 92.2796C44.6846 94.4076 41.5296 96.4541 35.0243 99.9795C28.5205 103.505 14.4992 107.137 11.2273 104.341C8.7516 102.226 10.4297 96.6764 13.4959 90.6481C16.5517 84.6391 20.3697 78.9635 20.3697 78.9635L46.453 37.7005H71.4827L74.8641 32.8785L49.4852 32.8281L70.0739 0L47.7168 8.33113L8.7516 68.5444C6.21962 72.95 4.27662 76.5939 3.37097 79.0124C-6.36626 105.013 7.74088 108.028 11.1445 108.028C15.0897 108.028 23.7466 107.905 35.8057 102.309C47.8648 96.7134 59.841 85.8112 59.841 85.8112L59.7063 82.5422C59.7063 82.5422 51.7508 89.5648 47.7878 92.2811L47.7908 92.2796Z" fill="#525252"/>
<path d="M200.57 35.4244C200.221 36.5165 200.113 37.6501 200.288 38.7749C201.078 43.8385 207.036 46.5903 214.99 45.6271C222.065 44.7706 226.216 39.9026 225.426 34.8375C224.729 30.3771 219.604 27.5748 213.807 27.5111V27.5082C213.807 27.5082 202.941 26.5953 193.963 36.352C193.427 36.9344 192.831 37.4812 192.371 38.1392C185.097 48.5538 177.246 60.1555 177.246 60.1555L172.67 71.151L173.858 71.3851C173.858 71.3851 186.774 52.0777 190.579 47.1475C194.33 42.2869 196.399 39.4432 200.57 35.4229V35.4244Z" fill="#525252"/>
<path d="M187.513 29.3887C187.513 29.3887 188.022 28.6848 187.181 29.0878C184.76 30.2496 177.556 31.0454 175.889 31.164C174.221 31.2825 162.228 31.281 162.228 31.281L161.385 35.4451L172.779 35.4748L164.049 47.8485C164.049 47.8485 143.923 77.2638 141.481 81.0055C139.04 84.7473 125.072 106.827 125.072 106.827H143.048C143.048 106.827 170.474 64.6041 172.026 62.2049C173.579 59.8057 175.57 56.6701 177.422 52.9506C179.047 49.6875 187.511 29.3857 187.511 29.3857L187.513 29.3887Z" fill="#525252"/>
<path d="M297.79 34.9843C297.093 30.5238 291.969 27.7216 286.172 27.6578V27.6549C286.172 27.6549 275.306 26.742 266.328 36.4987C265.792 37.0811 265.196 37.6279 264.736 38.2859C257.462 48.7005 249.61 60.3022 249.61 60.3022L245.035 71.2977L246.223 71.5319C246.223 71.5319 259.139 52.2245 262.944 47.2942C266.695 42.4337 268.764 39.5899 272.935 35.5696C272.586 36.6618 272.478 37.7954 272.653 38.9201C273.443 43.9837 279.401 46.7356 287.355 45.7724C294.43 44.9158 298.581 40.0478 297.79 34.9828V34.9843Z" fill="#525252"/>
<path d="M250.526 52.9505C252.151 49.6874 259.805 29.5842 259.805 29.5842C259.805 29.5842 259.928 28.8166 259.087 29.2212C256.666 30.3829 249.772 31.0424 248.104 31.1624C246.436 31.281 234.444 31.2795 234.444 31.2795L233.6 35.4436L245.883 35.4732L237.152 47.8469C237.152 47.8469 217.026 77.2622 214.584 81.004C212.143 84.7457 198.175 106.826 198.175 106.826H216.152C216.152 106.826 243.577 64.6025 245.129 62.2034C246.682 59.8042 248.674 56.6685 250.525 52.949L250.526 52.9505Z" fill="#525252"/>
<path d="M483.54 28.8804C482.281 29.4302 477.722 30.2022 473.481 30.8306C469.239 31.4589 457.448 31.3507 457.448 31.3507L456.605 35.5148L465.549 35.4644C465.45 35.7608 445.768 67.3248 445.768 67.3248L420.858 106.83H440.525C440.525 106.83 455.757 81.2708 458.014 77.3853C460.27 73.5013 473.454 48.3642 473.895 47.5091C474.336 46.6541 483.389 29.2998 483.389 29.2998C483.389 29.2998 483.799 28.7678 483.54 28.8819V28.8804Z" fill="#525252"/>
<path d="M441.246 15.4263C445.593 12.0802 447.539 5.67556 445.148 2.56065C442.757 -0.554266 437.58 -0.102293 432.5 4.29445C428.351 7.88356 427.073 13.6303 429.873 16.7022C432.185 19.2392 436.898 18.7724 441.244 15.4263H441.246Z" fill="#525252"/>
<path d="M433.832 76.1078C433.832 76.1078 421.944 88.4163 414.989 93.9971C408.034 99.5793 398.366 106.741 393.68 104.963C388.993 103.185 392.512 95.3323 393.496 93.0146C397.276 84.1189 412.823 61.3542 421.779 47.8677C430.517 34.7086 433.833 29.6509 433.833 29.6509L433.762 29.0863C433.762 29.0863 425.11 30.9312 423.124 31.118C421.138 31.3032 405.484 31.561 405.484 31.561L404.644 35.7918H412.324C412.324 35.7918 397.172 55.9943 385.536 74.131V74.2377C385.536 74.2377 380.654 81.0544 380.905 91.8232C381.153 102.592 388.549 107.642 394.423 107.251C400.774 106.827 409.573 104.51 431.648 82.3303L433.835 76.1078H433.832Z" fill="#525252"/>
<path d="M344.07 90.2361C344.07 90.2361 361.469 59.0292 364.801 53.1639C368.134 47.2986 377.708 32.6177 377.708 32.6177C377.708 32.6177 366.451 32.0308 365.155 32.6177C363.953 33.163 354.235 44.6727 352.841 46.3265C351.708 41.3756 349.892 39.1439 348.02 36.3653C348.02 36.3653 343.764 29.8525 334.417 31.1862C323.832 32.6977 312.753 36.0615 299.298 53.0958C289.425 65.5954 281.73 87.5272 286.817 98.3539C291.905 109.182 299.192 109.68 309.45 106.332C319.707 102.985 331.095 89.2625 331.097 89.2596C329.79 97.5225 330.922 106.475 340.619 107.976C355.943 110.347 374.177 89.8805 374.177 89.8805L377.63 81.1981C358.177 101.693 347.508 105.679 341.441 105.194C335.373 104.71 339.267 98.5465 340.331 96.3755C341.395 94.2031 344.069 90.2346 344.069 90.2346L344.07 90.2361ZM335.188 75.976C334.506 77.3452 333.583 79.5933 332.748 82.2844C327.311 90.1546 320.195 95.9932 315.933 99.3319C311.671 102.671 302.524 108.422 297.114 102.733C291.704 97.0454 304.451 73.642 309.451 64.813C314.452 55.9839 322.132 41.6616 329.126 36.9996C339.128 30.3326 344.328 34.1796 347.558 41.0066C349.223 44.526 349.592 48.1744 349.557 50.8833C344.821 58.1771 337.578 71.1806 335.188 75.976Z" fill="#525252"/>
<path d="M549.653 54.1849C549.653 54.1849 530.563 78.0432 522.646 85.6008C514.746 93.1421 498.108 109.874 491.052 104.495C485.577 100.32 500.955 80.9862 503.422 77.5971C505.889 74.2081 515.54 61.2209 516.885 57.1931C518.231 53.1654 522.262 42.0364 514.093 34.959C505.924 27.8815 491.711 35.8615 491.576 35.937C484.634 39.8107 478.536 46.6006 478.536 46.6006L477.121 52.0317C477.121 52.0317 489.075 39.3439 496.723 36.5016C504.372 33.6594 508.917 33.4697 508.183 38.5451C507.133 45.7871 501.846 51.4316 486.923 72.2327C477.12 85.8971 479.116 98.3938 482.71 102.943C484.498 105.205 486.826 106.71 489.251 107.387C495.246 109.063 504.618 107.993 524.033 87.8014C538.673 72.575 552 54.3642 552 54.3642L549.653 54.1834V54.1849Z" fill="#525252"/>
<path d="M141.289 42.5062C139.398 35.1176 133.57 32.2131 126.76 31.6337L126.264 33.9617C126.264 33.9617 131.131 34.2284 130.652 39.0208C130.173 43.8132 127.253 48.4382 126.125 50.132C124.998 51.8243 117.425 62.3101 112.87 64.3936C108.317 66.4771 105.48 68.1264 93.9761 68.4925L92.5629 70.8205C92.5629 70.8205 111.925 71.7897 124.5 66.446C137.076 61.1023 143.179 49.8964 141.287 42.5092L141.289 42.5062Z" fill="#525252"/>
<path d="M80.5763 99.2711C74.6348 89.8745 83.4028 74.792 85.6773 70.5879C87.9517 66.3838 91.7475 59.4204 100.322 49.9186C113.356 35.4747 120.839 34.6686 120.839 34.6686L121.332 31.8441C110.765 32.5228 103.191 35.6111 94.1951 40.5339C85.1993 45.4567 75.8143 54.9748 70.5624 66.0192C65.3105 77.0637 64.0748 90.0953 72.5394 99.4134C81.0055 108.731 90.759 107.86 90.759 107.86C90.759 107.86 97.1355 107.733 102.176 106.562C112.464 104.172 122.389 99.1304 122.389 99.1304L124.431 94.824C120.418 97.8248 107.579 102.888 104.268 103.576C100.956 104.264 86.5163 108.668 80.5748 99.2711H80.5763Z" fill="#525252"/>
</g>
<defs>
<clipPath id="clip0_76_1087">
<rect width="552" height="108.167" fill="white"/>
</clipPath>
</defs>
</svg>
