<?xml version="1.0" encoding="utf-8"?>
<svg version="1.1" xmlns="http://www.w3.org/2000/svg" x="0px" y="0px"
	 viewBox="0 0 400 400" width="400" height="400" xml:space="preserve">
<g fill="#1D2B45">
	<polygon points="296.1,151.1 290.3,151.1 290.3,105.1 114,105.1 114,151.1 108.2,151.1 108.2,99.3 296.1,99.3 296.1,151.1 	"/>
	<polygon points="296.1,293.3 108.2,293.3 108.2,242 114,242 114,287.5 290.3,287.5 290.3,242 296.1,242 296.1,293.3 	"/>
	<path d="M367.3,176.1H382v-5.4h-35.3v5.4h14.7v46.1h5.9v-33.7V176.1L367.3,176.1z M326.3,176.1H341v-5.4h-35.3v5.4h14.7v46.1h5.9
		V176.1L326.3,176.1z M290.3,222.2h5.8v-51.4h-5.8V222.2L290.3,222.2z M258.8,215l-18.3-44.3H234l22.1,51.8h5.1l22.1-51.8h-6.2
		L258.8,215L258.8,215z M227.9,170.7h-37.2v51.4h37.5v-5.3h-31.7v-18h28.1v-5.3h-28.1V176h31.4V170.7L227.9,170.7z M176.8,196.5
		c0,11.5-8.3,20.3-21.3,20.3h-12v-40.7h12C168.5,176.1,176.8,185.1,176.8,196.5 M182.8,196.4c0-14.5-11.2-25.6-27.3-25.6h-17.9v51.4
		h17.9C171.7,222.2,182.8,210.9,182.8,196.4 M128.1,214l-3.8-3.7c-4.9,4.7-9.6,7.4-16.6,7.4c-11.3,0-19.9-9.3-19.9-21.3
		c0-12,8.5-21.2,19.9-21.2c7,0,11.8,2.9,16.2,7.1l4-4.3c-5.1-4.8-10.7-8.2-20.1-8.2c-15.1,0-26,12-26,26.7
		c0,14.8,10.9,26.5,25.8,26.5C116.9,223,122.8,219.4,128.1,214 M68.4,180.5v41.6h6.2v-51.4h-6.3l-20,28.1l-20-28.1H22v51.4h6v-41.6
		l20,27.5h0.3L68.4,180.5L68.4,180.5z"/>
</g>
</svg>
